<?xml version="1.0" standalone="no"?>
<!DOCTYPE svg PUBLIC "-//W3C//DTD SVG 20010904//EN"
 "http://www.w3.org/TR/2001/REC-SVG-20010904/DTD/svg10.dtd">
<svg version="1.0" xmlns="http://www.w3.org/2000/svg"
 width="1080.000000pt" height="888.000000pt" viewBox="0 0 1080.000000 888.000000"
 preserveAspectRatio="xMidYMid meet">

<g transform="translate(0.000000,888.000000) scale(0.100000,-0.100000)"
fill="#000000" stroke="none">
<path d="M4269 6871 c-112 -12 -244 -105 -301 -211 -51 -96 -53 -111 -53 -475
l0 -340 27 -51 c28 -53 77 -102 131 -131 23 -13 56 -17 122 -18 85 0 94 2 155
36 129 72 166 93 235 132 39 22 95 53 125 70 30 16 69 38 85 47 62 37 231 122
257 130 26 8 27 7 18 -11 -6 -10 -17 -19 -25 -19 -8 0 -15 -5 -15 -11 0 -7 12
-10 30 -7 24 4 30 1 30 -14 0 -10 6 -21 14 -24 8 -3 17 -16 20 -30 4 -13 12
-24 19 -24 14 0 49 -80 45 -101 -2 -7 12 -18 32 -25 43 -14 73 -59 50 -74 -21
-13 -5 -23 46 -28 54 -4 52 -5 669 345 477 271 498 286 529 391 21 67 14 117
-24 193 -36 70 -125 119 -216 119 -45 0 -69 -8 -141 -46 -49 -26 -92 -50 -98
-54 -5 -5 -38 -24 -72 -44 -35 -20 -91 -52 -125 -72 -35 -20 -83 -48 -108 -62
-25 -14 -91 -51 -147 -84 -56 -32 -110 -58 -122 -58 -11 0 -100 46 -198 102
-98 55 -196 111 -218 123 -22 12 -96 55 -165 94 -273 158 -353 203 -388 215
-48 17 -152 25 -223 17z"/>
<path d="M6330 5643 c-267 -154 -291 -168 -370 -214 -85 -50 -136 -78 -200
-114 -25 -14 -52 -30 -60 -35 -13 -8 -197 -113 -320 -182 -25 -14 -88 -50
-140 -80 -52 -30 -115 -66 -140 -80 -25 -15 -175 -101 -335 -193 -159 -92
-324 -186 -365 -209 -260 -147 -306 -176 -349 -218 -273 -270 -86 -729 298
-728 77 0 133 14 192 48 128 73 161 92 164 92 1 0 44 25 94 55 51 30 93 55 95
55 4 0 171 95 269 154 43 25 80 46 82 46 2 0 45 25 96 55 50 30 93 55 94 55 1
0 89 50 196 111 107 62 244 140 304 174 61 34 187 106 280 160 94 54 206 119
250 143 44 24 91 52 105 62 14 9 50 30 80 46 78 40 108 63 160 114 158 159
161 411 7 586 -31 36 -192 144 -213 144 -3 0 -22 11 -42 25 -20 14 -43 25 -52
24 -8 0 -89 -43 -180 -96z"/>
<path d="M2904 2618 c-58 -15 -80 -61 -48 -103 13 -18 30 -21 158 -25 164 -6
186 -15 186 -77 0 -27 -6 -37 -32 -53 -28 -17 -51 -20 -159 -20 -118 0 -127
-1 -147 -23 -20 -21 -22 -34 -22 -148 0 -112 2 -128 20 -147 26 -28 73 -29
100 -2 17 17 20 33 20 100 l0 79 35 7 c19 3 50 3 68 0 48 -9 136 20 176 57 38
37 71 105 71 149 0 90 -72 188 -147 203 -51 10 -246 12 -279 3z"/>
<path d="M3737 2616 c-152 -34 -247 -154 -247 -311 0 -52 4 -66 37 -143 22
-50 88 -111 151 -139 50 -22 68 -25 137 -21 126 7 215 64 271 175 39 79 41
181 3 263 -61 133 -211 207 -352 176z m130 -141 c48 -20 71 -41 94 -87 51
-100 -7 -223 -117 -248 -59 -14 -108 -2 -154 37 -51 44 -73 94 -64 148 20 124
134 195 241 150z"/>
<path d="M5240 2616 c-30 -17 -40 -51 -27 -89 10 -30 25 -36 107 -39 l55 -3 5
-226 c5 -248 8 -259 64 -259 71 1 76 20 76 274 l0 216 65 0 c52 0 69 4 85 20
26 26 26 72 -1 96 -19 17 -40 19 -213 21 -150 2 -196 0 -216 -11z"/>
<path d="M6080 2616 c-100 -25 -181 -92 -221 -181 -31 -69 -30 -180 1 -252 27
-62 101 -136 166 -163 70 -31 179 -28 252 7 113 54 182 160 182 283 0 148 -94
266 -242 306 -61 16 -76 16 -138 0z m133 -140 c45 -18 92 -70 107 -117 11 -33
11 -50 2 -86 -24 -89 -85 -138 -172 -137 -72 1 -114 24 -151 82 -60 95 -23
211 81 256 44 19 91 20 133 2z"/>
<path d="M6885 2618 c-121 -20 -213 -102 -250 -223 -35 -116 1 -233 96 -320
65 -59 120 -77 214 -73 172 8 291 120 303 284 8 117 -52 234 -150 293 -53 32
-149 49 -213 39z m116 -142 c74 -31 109 -83 109 -163 0 -67 -20 -107 -75 -149
-61 -46 -176 -35 -226 22 -36 42 -51 86 -47 140 6 65 39 113 100 143 50 24 92
27 139 7z"/>
<path d="M7625 2616 c-66 -20 -88 -32 -129 -73 -66 -65 -78 -105 -84 -284 -7
-217 4 -259 67 -259 50 0 56 18 61 204 6 202 16 233 84 266 23 11 51 20 62 20
34 -1 88 -34 111 -69 22 -32 23 -44 23 -201 0 -154 2 -169 21 -194 26 -33 68
-34 97 -3 21 22 22 33 22 191 0 195 -11 241 -72 311 -45 51 -80 72 -153 91
-57 16 -56 16 -110 0z"/>
<path d="M4295 2600 c-20 -23 -17 -56 19 -165 13 -38 40 -124 61 -190 79 -254
75 -245 119 -245 19 0 38 6 44 13 6 7 29 71 52 142 52 160 57 175 68 175 4 0
25 -55 46 -122 57 -183 61 -192 90 -206 37 -19 68 2 88 60 80 223 160 489 154
512 -9 37 -50 55 -83 36 -24 -14 -60 -104 -103 -260 -5 -20 -16 -44 -23 -54
-14 -19 -16 -13 -90 224 -22 71 -46 100 -83 100 -32 0 -48 -28 -85 -144 -17
-56 -35 -110 -39 -121 -5 -11 -12 -30 -15 -43 -14 -51 -31 -15 -99 209 -9 31
-24 65 -32 77 -19 28 -65 29 -89 2z"/>
</g>
</svg>
